<?xml version="1.0" encoding="UTF-8" standalone="no"?>
<!-- Created with Inkscape (http://www.inkscape.org/) -->

<svg
   xmlns:dc="http://purl.org/dc/elements/1.1/"
   xmlns:cc="http://creativecommons.org/ns#"
   xmlns:rdf="http://www.w3.org/1999/02/22-rdf-syntax-ns#"
   xmlns:svg="http://www.w3.org/2000/svg"
   xmlns="http://www.w3.org/2000/svg"
   xmlns:sodipodi="http://sodipodi.sourceforge.net/DTD/sodipodi-0.dtd"
   xmlns:inkscape="http://www.inkscape.org/namespaces/inkscape"
   width="800px"
   height="600px"
   id="svg2985"
   version="1.1"
   inkscape:version="0.48.2 r9819"
   sodipodi:docname="drawing.svg"
   inkscape:export-filename="/Users/henryfinucane/Documents/src/LD2013/drawing.png"
   inkscape:export-xdpi="90"
   inkscape:export-ydpi="90">
  <defs
     id="defs2987">
    <inkscape:perspective
       sodipodi:type="inkscape:persp3d"
       inkscape:vp_x="-43.170869 : 725.69819 : 1"
       inkscape:vp_y="514.74964 : 1192.006 : 1"
       inkscape:vp_z="1361.4053 : 680.91476 : 1"
       inkscape:persp3d-origin="514.74964 : 192.00603 : 1"
       id="perspective3118" />
    <inkscape:perspective
       sodipodi:type="inkscape:persp3d"
       inkscape:vp_x="-103.70899 : 332.99832 : 1"
       inkscape:vp_y="400 : 1200 : 1"
       inkscape:vp_z="1220.7285 : 596.98485 : 1"
       inkscape:persp3d-origin="400 : 200 : 1"
       id="perspective3046" />
  </defs>
  <sodipodi:namedview
     id="base"
     pagecolor="#ffffff"
     bordercolor="#666666"
     borderopacity="1.0"
     inkscape:pageopacity="0.0"
     inkscape:pageshadow="2"
     inkscape:zoom="0.84852814"
     inkscape:cx="611.55531"
     inkscape:cy="247.10988"
     inkscape:current-layer="layer1"
     inkscape:document-units="px"
     showgrid="false"
     inkscape:window-width="1916"
     inkscape:window-height="1036"
     inkscape:window-x="4"
     inkscape:window-y="0"
     inkscape:window-maximized="1"
     showguides="true"
     inkscape:guide-bbox="true">
    <inkscape:grid
       type="xygrid"
       id="grid3020"
       empspacing="5"
       visible="true"
       enabled="true"
       snapvisiblegridlinesonly="true" />
    <sodipodi:guide
       orientation="1,0"
       position="380,-120"
       id="guide3041" />
  </sodipodi:namedview>
  <metadata
     id="metadata2990">
    <rdf:RDF>
      <cc:Work
         rdf:about="">
        <dc:format>image/svg+xml</dc:format>
        <dc:type
           rdf:resource="http://purl.org/dc/dcmitype/StillImage" />
        <dc:title></dc:title>
      </cc:Work>
    </rdf:RDF>
  </metadata>
  <g
     id="layer1"
     inkscape:label="Layer 1"
     inkscape:groupmode="layer">
    <rect
       style="fill:#e3dbdb;fill-opacity:1;stroke-width:1.07400000000000007;stroke-miterlimit:4;stroke-dasharray:none"
       id="rect3018"
       width="800"
       height="600"
       x="0"
       y="0" />
    <path
       style="fill:#e3dbdb;fill-opacity:1;stroke-width:1.074;stroke-miterlimit:4;stroke-dasharray:none"
       id="path3122"
       d="m 127.63788,145.5901 c 7.04269,13.20186 18.35918,22.97586 29.54229,32.56304 21.79196,17.61827 47.54397,28.85924 73.16259,39.6309 27.95248,11.57175 56.48805,21.6605 85.04168,31.63069 11.57078,4.18599 23.23376,8.14112 35.08568,11.4624 6.64133,1.86111 12.25288,3.42867 19.12877,4.05469 3.11697,0.28379 6.25811,0.14182 9.38717,0.21274 14.81425,-1.31939 29.59209,-5.31184 42.45659,-12.99129 11.10979,-6.63197 14.40519,-10.63905 24.19189,-19.59274 3.84286,-4.43846 7.8902,-8.7078 11.52857,-13.31538 12.34903,-15.63863 23.7432,-34.21683 27.88678,-53.9759 0.7886,-3.76052 0.88188,-7.63388 1.32281,-11.45082 -0.38228,-3.42721 -0.338,-6.92936 -1.14685,-10.28162 -2.29165,-9.4977 -8.36966,-17.28315 -16.83945,-22.0906 -7.91736,-4.4939 -13.52527,-5.11498 -22.42845,-7.26211 -4.92209,-0.53314 -9.8188,-1.41533 -14.76625,-1.59943 -18.34279,-0.68254 -36.61412,2.39628 -53.89662,8.50229 -17.44515,6.16347 -23.26702,10.1375 -39.64882,18.96178 -25.92582,15.99871 -50.82394,34.72043 -67.78022,60.53353 -11.88052,18.08611 -12.54713,23.69251 -19.81592,43.8993 -1.60413,7.72897 -3.65043,15.37922 -4.81239,23.18691 -3.08842,20.7525 -2.78096,42.23173 0.62358,62.92347 2.39466,14.55399 4.42639,19.31641 8.78358,33.01991 1.95093,4.62502 3.90186,9.25005 5.8528,13.87507 0,0 -0.30837,0.17296 -0.30837,0.17296 l 0,0 c -1.95145,-4.62597 -3.90291,-9.25194 -5.85436,-13.8779 -4.35841,-13.70556 -6.39092,-18.46979 -8.78682,-33.02596 -3.4063,-20.69487 -3.71526,-42.17736 -0.62864,-62.93351 1.16128,-7.80913 3.20683,-15.46094 4.81025,-23.19141 7.26634,-20.2102 7.93297,-25.81931 19.81135,-43.90953 17.08461,-26.01907 42.22098,-44.831 68.38058,-60.89452 16.38391,-8.82221 22.20618,-12.79556 39.65353,-18.9558 17.28561,-6.10313 35.56018,-9.17817 53.90474,-8.4913 4.94841,0.18528 9.84592,1.06877 14.76887,1.60316 8.91108,2.15196 14.51348,2.77269 22.4364,7.27412 8.47531,4.81527 14.55819,12.61011 16.85385,22.11557 0.81014,3.35451 0.76698,6.85916 1.15047,10.28874 -0.44004,3.81878 -0.53216,7.69391 -1.32014,11.45633 -4.13927,19.76399 -15.53222,38.34586 -27.88064,53.98963 -3.6379,4.60872 -7.68465,8.87945 -11.52698,13.31917 -10.3509,9.47483 -12.96802,12.8949 -24.79539,19.94723 -12.8702,7.67414 -27.64883,11.66646 -42.46683,12.97781 -3.12999,-0.0722 -6.27213,0.0683 -9.38996,-0.21665 -6.87395,-0.62816 -12.492,-2.19745 -19.13139,-4.05847 -11.85213,-3.32216 -23.51532,-7.27796 -35.08662,-11.46378 -28.55403,-9.97089 -57.09021,-20.05968 -85.04291,-31.63251 -25.62126,-10.77391 -51.37539,-22.01796 -73.16854,-39.64013 -2.95483,-2.53342 -5.97912,-4.988 -8.86449,-7.60026 -8.09815,-7.33163 -15.51379,-15.40924 -22.04241,-24.16716 0,0 1.66464,-0.98266 1.66464,-0.98266 z"
       inkscape:connector-curvature="0" />
    <path
       style="fill:#975529;fill-opacity:0.77315694;stroke-width:1.07400000000000007;stroke-miterlimit:4;stroke-dasharray:none"
       id="path3128"
       d="m 115.28794,181.8026 c -12.85959,12.262 -26.758483,23.37182 -40.155059,35.0297 -6.944989,6.04362 -13.812962,12.17518 -20.719442,18.26277 0,0 -10.478672,4.27289 -10.478672,4.27289 l 0,0 c 6.521016,-5.93555 13.020456,-11.89488 19.563048,-17.80664 12.054705,-10.89239 24.628502,-21.31771 35.804796,-33.13738 0,0 15.985329,-6.62134 15.985329,-6.62134 z"
       inkscape:connector-curvature="0" />
    <path
       style="fill:#975529;fill-opacity:0.77315694;stroke-width:1.07400000000000007;stroke-miterlimit:4;stroke-dasharray:none"
       id="path3130"
       d="m 160.35965,189.83641 c -3.10887,3.39259 -3.40929,3.80416 -7.54465,7.71125 -7.464,7.05198 -18.94595,17.26852 -26.01741,23.52856 -18.70551,16.55915 -29.633476,25.98233 -48.977808,42.80874 -38.690755,34.13528 -19.40301,16.94853 -57.861805,51.56184 0,0 -7.914178,3.2301 -7.914178,3.2301 l 0,0 c 38.137244,-34.41114 19.141869,-17.3404 56.983834,-51.21479 23.321884,-20.83958 46.980087,-41.4666 68.957087,-63.75174 4.04356,-4.10025 3.60271,-3.6782 6.37693,-7.10302 0,0 15.998,-6.77094 15.998,-6.77094 z"
       inkscape:connector-curvature="0" />
    <path
       style="fill:#975529;fill-opacity:0.77315694;stroke-width:1.07400000000000007;stroke-miterlimit:4;stroke-dasharray:none"
       id="path3132"
       d="m 208.2277,243.23513 c -17.97675,17.92066 -37.59317,34.18427 -57.05876,50.43421 -38.4892,32.1309 -40.10426,33.05525 -81.359314,66.09303 -16.426665,12.70231 -32.85333,25.40462 -49.279995,38.10693 0,0 -2.950726,1.17953 -2.950726,1.17953 l 0,0 c 15.996888,-12.52734 31.993776,-25.05468 47.990663,-37.58202 37.154072,-30.42299 42.512372,-34.27781 76.824992,-64.23455 16.11842,-14.07223 32.40121,-28.39055 47.05671,-44.04776 0.99889,-1.06716 1.88962,-2.23065 2.83443,-3.34597 0,0 15.942,-6.6034 15.942,-6.6034 z"
       inkscape:connector-curvature="0" />
    <path
       style="fill:#975529;fill-opacity:0.77315694;stroke-width:1.07400000000000007;stroke-miterlimit:4;stroke-dasharray:none"
       id="path3134"
       d="m 173.42273,239.43518 c 0.52715,-0.31769 -8.79271,4.93868 -6.64874,3.61064 2.61433,-1.61938 10.19844,-6.7501 7.99338,-4.60653 -2.52258,2.45223 -6.02736,3.63322 -8.97218,5.55803 -7.73955,5.05876 -26.0353,17.83654 -32.13304,22.06164 -32.02865,22.92202 -63.246116,46.94504 -94.557983,70.82704 0,0 -6.69927,2.67319 -6.69927,2.67319 l 0,0 c 29.830612,-23.08669 59.571156,-46.2952 89.729783,-68.95392 3.56223,-2.56895 23.72001,-17.17561 29.41525,-21.07281 9.36673,-6.40956 17.7862,-10.92671 28.09772,-16.8594 2.8583,-1.6445 4.61219,-2.55087 7.37364,-4.01451 0,0 -13.59856,10.77663 -13.59856,10.77663 z"
       inkscape:connector-curvature="0" />
    <path
       style="fill:#975529;fill-opacity:0.77315694;stroke-width:1.07400000000000007;stroke-miterlimit:4;stroke-dasharray:none"
       id="path3136"
       d="m 266.35998,244.24425 c -13.18006,18.19339 -27.84678,35.25582 -43.34436,51.51225 -8.53312,8.95094 -17.36082,17.61633 -26.04123,26.4245 -36.43354,35.2378 -74.62602,68.65857 -113.66294,100.97536 -19.473035,16.1208 -59.003452,47.40858 -79.3852675,63.61683 0,0 -5.7085022,2.28695 -5.7085022,2.28695 l 0,0 c 24.9544417,-19.60331 56.1927547,-43.8898 80.4654657,-64.02986 37.981604,-31.5149 74.999784,-64.3087 109.808634,-99.31726 8.00959,-8.5113 16.19019,-16.86484 24.02876,-25.53389 13.87824,-15.34862 26.83246,-31.54495 37.97281,-48.9927 0,0 15.86663,-6.94218 15.86663,-6.94218 z"
       inkscape:connector-curvature="0" />
    <path
       style="fill:#975529;fill-opacity:0.77315694;stroke-width:1.07400000000000007;stroke-miterlimit:4;stroke-dasharray:none"
       id="path3138"
       d="m 321.0534,291.92812 c -3.89964,4.266 -3.15751,3.66704 -9.75092,8.84143 -5.91503,4.642 -11.98772,9.07953 -17.97401,13.62926 -10.68615,8.12174 -21.32344,16.30796 -32.04331,24.38514 -37.50767,28.26121 -75.17206,56.31382 -112.73921,84.49592 0,0 -0.32845,0.13084 -0.32845,0.13084 l 0,0 c 41.99848,-32.2793 65.25401,-49.84627 105.02757,-81.40972 9.5025,-7.54099 18.87157,-15.24862 28.29681,-22.88596 5.12799,-4.15524 10.31224,-8.24279 15.36285,-12.49175 3.83723,-3.22819 5.2306,-4.68019 8.16406,-7.61055 0,0 15.98461,-7.08461 15.98461,-7.08461 z"
       inkscape:connector-curvature="0" />
    <path
       style="fill:#975529;fill-opacity:0.77315694;stroke-width:1.07400000000000007;stroke-miterlimit:4;stroke-dasharray:none"
       id="path3140"
       d="m 358.92163,320.52195 c -18.10875,26.64371 -37.75079,52.2565 -57.65704,77.56321 -18.06441,22.96521 -35.88414,46.1433 -54.7672,68.44025 -25.79066,30.45338 -52.81067,59.84397 -79.21601,89.76596 0,0 -0.32579,0.13733 -0.32579,0.13733 l 0,0 c 26.40562,-29.92133 53.72664,-59.05908 79.21685,-89.76399 17.82055,-21.46622 34.22992,-44.07777 50.63069,-66.64734 16.85048,-23.18844 32.63276,-47.43845 46.48753,-72.56755 0,0 15.63097,-6.92787 15.63097,-6.92787 z"
       inkscape:connector-curvature="0" />
    <path
       style="fill:#975529;fill-opacity:0.77315694;stroke-width:1.07400000000000007;stroke-miterlimit:4;stroke-dasharray:none"
       id="path3142"
       d="m 443.4734,352.22041 c -2.6714,3.59783 -4.83262,6.61775 -8.05005,10.0853 -10.95965,11.81165 -23.21991,23.03357 -35.38778,33.44934 -30.18657,25.83986 -49.8551,40.44629 -82.37579,65.77773 -76.47366,58.14547 -37.67897,28.72931 -116.3905,88.24001 0,0 -0.32846,0.13083 -0.32846,0.13083 l 0,0 c 77.14657,-58.71883 39.46437,-29.73345 113.08011,-86.91261 31.20908,-25.1548 47.58102,-37.50169 75.97427,-63.11919 11.00262,-9.927 21.45458,-20.10474 31.01328,-31.38855 3.23324,-3.81676 4.2401,-5.62612 6.48872,-9.27274 0,0 15.9762,-6.99012 15.9762,-6.99012 z"
       inkscape:connector-curvature="0" />
    <path
       style="fill:#975529;fill-opacity:0.77315694;stroke-width:1.07400000000000007;stroke-miterlimit:4;stroke-dasharray:none"
       id="path3144"
       d="m 499.79692,371.56854 c -0.98652,1.74817 -1.87689,3.5542 -2.95956,5.2445 -14.86302,23.20467 -32.84104,44.2951 -51.75431,64.26672 -38.47834,40.63152 -46.5942,46.00784 -90.82056,85.39706 0,0 -1.6868,0.68876 -1.6868,0.68876 l 0,0 c 40.78574,-37.44455 50.03739,-43.88669 84.89101,-82.86143 16.62464,-18.59036 32.65457,-38.6368 44.47442,-60.75158 0.82966,-1.55229 1.39181,-3.23337 2.08771,-4.85005 0,0 15.76809,-7.13398 15.76809,-7.13398 z"
       inkscape:connector-curvature="0" />
    <path
       style="fill:#975529;fill-opacity:0.77315694;stroke-width:1.07400000000000007;stroke-miterlimit:4;stroke-dasharray:none"
       id="path3146"
       d="m 551.14869,405.99859 c -0.97356,8.12356 -4.96223,15.4967 -8.78029,22.5928 -4.19397,7.79476 -8.55967,15.5006 -13.12493,23.08388 -21.0404,34.94987 -28.8508,45.50222 -53.08098,81.63825 -12.76148,17.78938 -25.52297,35.57876 -38.28445,53.36815 0,0 -2.26718,0.98531 -2.26718,0.98531 l 0,0 c 12.01312,-17.45737 24.02625,-34.91474 36.03937,-52.37211 22.80952,-36.52887 28.28759,-43.64156 46.92677,-78.82329 3.79548,-7.16403 7.29539,-14.48541 10.65668,-21.86314 2.96382,-6.5053 5.88024,-13.26907 6.487,-20.47111 0,0 15.42801,-8.13874 15.42801,-8.13874 z"
       inkscape:connector-curvature="0" />
    <path
       style="fill:#975529;fill-opacity:0.77315694;stroke-width:1.07400000000000007;stroke-miterlimit:4;stroke-dasharray:none"
       id="path3148"
       d="m 570.53641,432.73846 c -8.3793,13.11392 -18.32759,25.17337 -28.45189,36.95658 -24.19248,28.15649 -23.87177,26.86629 -52.43816,56.47564 -42.80039,39.60578 -44.12192,42.24889 -92.55546,80.55699 -19.15327,15.14913 -38.89373,29.54071 -58.3406,44.31106 0,0 -0.57955,0.23109 -0.57955,0.23109 l 0,0 c 18.94621,-14.56719 38.22028,-28.71764 56.83864,-43.70158 45.63521,-36.72691 47.79064,-40.29921 87.68139,-78.4922 25.0841,-27.29807 26.86513,-28.15617 47.84791,-54.44304 8.81191,-11.03942 17.29769,-22.44832 24.172,-34.81716 0,0 15.82572,-7.07738 15.82572,-7.07738 z"
       inkscape:connector-curvature="0" />
    <path
       style="fill:#975529;fill-opacity:0.77315694;stroke-width:1.07400000000000007;stroke-miterlimit:4;stroke-dasharray:none"
       id="path3150"
       d="m 597.09044,468.09776 c -1.10896,0.7294 -2.24988,1.41238 -3.32687,2.1882 -4.95095,3.56649 -11.27061,8.77453 -15.71482,12.29208 -5.1738,4.09501 -10.38987,8.13663 -15.5471,12.25249 -6.53972,5.2192 -44.93922,36.23515 -48.81353,39.3627 -10.38268,8.31333 -20.76537,16.62666 -31.14805,24.94 0,0 -7.81626,3.14102 -7.81626,3.14102 l 0,0 c 10.01347,-8.16249 20.02694,-16.32497 30.04041,-24.48746 19.8602,-16.54242 39.73167,-33.07511 59.54543,-49.67275 4.39412,-3.68088 9.24952,-8.00687 13.82832,-11.67215 0.91826,-0.73506 1.88034,-1.41366 2.82051,-2.1205 0,0 16.13196,-6.22363 16.13196,-6.22363 z"
       inkscape:connector-curvature="0" />
    <path
       style="fill:#975529;fill-opacity:0.77315694;stroke-width:1.07400000000000007;stroke-miterlimit:4;stroke-dasharray:none"
       id="path3152"
       d="m 647.29511,481.28902 c -6.40342,15.0087 -16.51047,28.53476 -27.81918,40.20622 -6.83434,7.05356 -13.87611,13.95346 -21.48927,20.15834 -10.184,8.30017 -21.20369,15.51869 -31.80554,23.27804 -13.53942,7.93642 -27.07884,15.87285 -40.61826,23.80928 0,0 -6.36137,2.44837 -6.36137,2.44837 l 0,0 c 12.97409,-7.68629 25.94818,-15.37258 38.92226,-23.05887 9.90763,-7.43439 20.24068,-14.33329 29.72289,-22.30318 7.04094,-5.91797 13.49723,-12.52462 19.74477,-19.27485 10.10978,-10.9232 19.14616,-23.67758 24.13094,-37.80334 0,0 15.57276,-7.46001 15.57276,-7.46001 z"
       inkscape:connector-curvature="0" />
    <path
       style="fill:#975529;fill-opacity:0.77315694;stroke-width:1.07400000000000007;stroke-miterlimit:4;stroke-dasharray:none"
       id="path3154"
       d="m 686.61599,495.32869 c -0.43948,11.03212 -0.86089,22.22421 -2.87171,33.10705 -3.34049,18.07928 -8.41551,35.14883 -15.57529,52.16823 -4.90689,11.6641 -10.96683,22.80885 -16.45024,34.21328 -7.45665,11.96719 -14.9133,23.93439 -22.36995,35.90158 0,0 -7.16623,3.16705 -7.16623,3.16705 l 0,0 c 7.14565,-11.79226 14.2913,-23.58452 21.43695,-35.37677 5.00682,-11.14192 10.63971,-22.02313 15.02046,-33.42574 9.93305,-25.85467 15.78964,-54.08937 12.67099,-81.8078 0,0 15.30502,-7.94688 15.30502,-7.94688 z"
       inkscape:connector-curvature="0" />
    <path
       style="fill:#975529;fill-opacity:0.77315694;stroke-width:1.07400000000000007;stroke-miterlimit:4;stroke-dasharray:none"
       id="path3156"
       d="m 727.27504,530.45766 c 8.16736,14.72666 5.17732,32.92351 -0.32166,48.03315 -2.92738,8.04363 -6.98309,15.63056 -10.47463,23.44583 -5.89286,9.25161 -11.78572,18.50322 -17.67857,27.75483 0,0 -9.24914,4.08324 -9.24914,4.08324 l 0,0 c 5.40502,-8.97098 10.81004,-17.94195 16.21506,-26.91292 3.05101,-7.52812 6.67702,-14.84805 9.15303,-22.58436 4.33244,-13.53675 6.25902,-29.36031 -0.72007,-42.39385 -0.45933,-0.85779 -1.14449,-1.57395 -1.71673,-2.36093 0,0 14.79271,-9.06499 14.79271,-9.06499 z"
       inkscape:connector-curvature="0" />
    <path
       style="fill:#975529;fill-opacity:0.77315694;stroke-width:1.07400000000000007;stroke-miterlimit:4;stroke-dasharray:none"
       id="path3158"
       d="m 783.29893,554.81234 c 0.19385,2.4228 0.4264,4.15543 0.0642,6.71884 -2.66176,18.84053 -17.25976,33.351 -28.88724,47.14946 0,0 -11.43971,4.86957 -11.43971,4.86957 l 0,0 c 9.85945,-12.31979 26.89127,-30.53005 25.33854,-48.26831 -0.0714,-0.81527 -0.31392,-1.60639 -0.47088,-2.40958 0,0 15.39505,-8.05998 15.39505,-8.05998 z"
       inkscape:connector-curvature="0" />
    <path
       style="fill:#975529;fill-opacity:0.77315694;stroke-width:1.07400000000000007;stroke-miterlimit:4;stroke-dasharray:none"
       id="path3160"
       d="m 63.669823,166.17497 c -8.958556,7.605 -18.872565,13.90021 -28.776051,20.19159 -10.194167,6.47603 -20.514248,12.75169 -30.7713723,19.12754 0,0 -8.8935615,3.45581 -8.8935615,3.45581 l 0,0 c 9.2181411,-5.9589 18.5062028,-11.81099 27.6544238,-17.87669 8.387397,-5.56123 17.425322,-11.27023 24.610416,-18.50876 0,0 16.176145,-6.38949 16.176145,-6.38949 z"
       inkscape:connector-curvature="0" />
    <path
       style="fill:#975529;fill-opacity:0.77315694;stroke-width:1.07400000000000007;stroke-miterlimit:4;stroke-dasharray:none"
       id="path3162"
       d="m 20.064905,152.03283 c -12.2935365,8.43046 -25.6257012,13.55763 -39.219497,19.24879 0,0 10.9842416,-8.69215 10.9842416,-8.69215 l 0,0 c 4.9655758,-2.24395 9.9573168,-4.43088 14.8967273,-6.73186 10.2030931,-4.75301 14.6947401,-7.82285 -2.8376169,2.56472 0,0 16.176145,-6.3895 16.176145,-6.3895 z"
       inkscape:connector-curvature="0" />
    <path
       style="fill:#975529;fill-opacity:0.77315694;stroke-width:1.07400000000000007;stroke-miterlimit:4;stroke-dasharray:none"
       id="path3164"
       d="m 510.15565,412.61457 c -13.50622,9.19887 -27.32558,17.9561 -41.08445,26.77683 -25.22904,16.03143 -50.70039,31.67113 -75.95061,47.66983 -20.18532,12.38743 -40.30083,24.84945 -61.96741,34.50387 -5.13001,2.73617 -10.56035,4.5475 -16.17226,5.91786 -5.00792,1.16845 -9.92824,2.62423 -14.95468,3.72168 -5.58215,1.21832 -11.21184,2.07483 -16.85131,2.94368 -5.57145,1.30617 -11.2523,1.96298 -16.96175,2.1741 0,0 13.58937,-9.99484 13.58937,-9.99484 l 0,0 c 5.72625,-0.45382 11.40536,-1.19545 17.02498,-2.41178 5.57658,-0.81049 11.12497,-1.76483 16.63748,-2.94374 5.11047,-1.21868 10.12953,-2.77128 15.24595,-3.97011 5.28735,-1.26071 10.32195,-3.23414 15.23254,-5.56927 4.46917,-1.96143 6.86171,-2.95212 11.36989,-5.20752 2.49942,-1.25044 4.83347,-2.85185 7.43144,-3.88201 1.53035,-0.60682 -5.62545,3.42187 -4.19888,2.60022 4.11154,-2.36809 17.52593,-10.47125 21.2154,-12.69193 25.16195,-15.89175 50.56023,-31.40406 75.58336,-47.51381 8.96277,-5.80736 17.85261,-11.71384 26.76408,-17.5986 1.71904,-1.13518 7.44453,-4.82545 9.57353,-6.32514 0.80604,-0.56778 1.57011,-1.19291 2.35516,-1.78936 0,0 16.11817,-6.40996 16.11817,-6.40996 z"
       inkscape:connector-curvature="0" />
    <path
       style="fill:#975529;fill-opacity:0.77315694;stroke-width:1.07400000000000007;stroke-miterlimit:4;stroke-dasharray:none"
       id="path3166"
       d="m 514.67044,431.69857 c -23.17536,20.15665 -46.99148,39.54547 -72.26524,57.03725 -9.76737,6.75992 -19.79504,13.13578 -29.69255,19.70367 -9.96488,6.13177 -19.92977,12.26354 -29.89465,18.39531 0,0 -8.78369,3.3995 -8.78369,3.3995 l 0,0 c 9.97118,-6.12169 19.94237,-12.24339 29.91355,-18.36508 9.58473,-6.42899 19.31171,-12.65082 28.75419,-19.28698 23.3447,-16.40663 45.43029,-34.55903 65.96679,-54.36547 0,0 16.0016,-6.5182 16.0016,-6.5182 z"
       inkscape:connector-curvature="0" />
    <path
       style="fill:#975529;fill-opacity:0.77315694;stroke-width:1.07400000000000007;stroke-miterlimit:4;stroke-dasharray:none"
       id="path3168"
       d="m 376.44706,358.97625 c -2.21532,1.23447 -4.49509,2.35979 -6.64596,3.7034 -1.26016,0.7872 -2.32749,1.85351 -3.5653,2.67541 -9.5755,6.35807 -19.26007,12.55044 -28.86769,18.85988 -13.61263,8.93959 -27.13205,18.02143 -40.79292,26.88712 -53.13128,34.48135 -53.65045,34.36023 -108.78764,68.40168 0,0 -2.03589,0.7888 -2.03589,0.7888 l 0,0 c 53.45566,-33.25574 54.042,-33.00998 104.70571,-66.7952 12.6353,-8.42589 25.11143,-17.0881 37.64998,-25.6573 8.59996,-5.87745 17.0318,-12.00571 25.76545,-17.6826 16.50923,-10.73105 22.45474,-14.07034 35.91548,-21.85291 0,0 -13.34122,10.67172 -13.34122,10.67172 z"
       inkscape:connector-curvature="0" />
    <path
       style="fill:#975529;fill-opacity:0.77315694;stroke-width:1.07400000000000007;stroke-miterlimit:4;stroke-dasharray:none"
       id="path3170"
       d="m 318.08467,328.93574 c -1.55321,0.79836 -3.2587,1.35236 -4.65963,2.39506 -0.34632,0.25777 1.63623,-0.14547 1.29025,0.11275 -7.69769,5.74528 -15.78619,10.94866 -23.59839,16.53725 -30.85987,22.07611 -56.78021,41.37005 -87.79753,64.21579 0,0 -3.18509,1.26641 -3.18509,1.26641 l 0,0 c 15.57048,-11.86814 31.13806,-23.7401 46.71144,-35.60442 11.26702,-8.58359 22.50921,-17.19997 33.80978,-25.73934 16.25578,-12.28381 32.55926,-24.97627 51.05374,-33.82753 0,0 -13.62457,10.64403 -13.62457,10.64403 z"
       inkscape:connector-curvature="0" />
    <path
       style="fill:#975529;fill-opacity:0.77315694;stroke-width:1.07400000000000007;stroke-miterlimit:4;stroke-dasharray:none"
       id="path3172"
       d="m 277.17549,276.04085 c -5.08142,10.18872 -12.20487,19.31915 -19.82147,27.72221 -7.50688,8.28201 -15.29815,16.31357 -23.32778,24.08982 -33.22329,32.17495 -45.77423,41.71024 -82.64227,73.06817 -64.800145,51.68805 -32.71908,26.77705 -96.166965,74.83106 0,0 -3.543792,1.41032 -3.543792,1.41032 l 0,0 c 64.194107,-48.17095 32.06683,-23.24435 96.316107,-74.86441 35.51,-31.10253 45.59441,-38.51394 76.68501,-70.53429 12.92197,-13.30839 26.4878,-27.87932 35.17107,-44.58251 0.6444,-1.23957 1.07301,-2.57989 1.60952,-3.86983 0,0 15.72057,-7.27054 15.72057,-7.27054 z"
       inkscape:connector-curvature="0" />
    <g
       sodipodi:type="inkscape:box3d"
       style="fill:#502d16;fill-opacity:1;stroke-width:1.074;stroke-miterlimit:4;stroke-dasharray:none"
       id="g3174"
       inkscape:perspectiveID="#perspective3118"
       inkscape:corner0="0.74563686 : 0.55721374 : 0 : 1"
       inkscape:corner7="-0.16491603 : 0.21227744 : 1.6103666 : 1">
      <path
         sodipodi:type="inkscape:box3dside"
         id="path3184"
         style="fill:#afafde;fill-rule:evenodd;stroke:none"
         inkscape:box3dsidetype="13"
         d="M 302.27553,96.32661 602.59901,289.35007 1062.3738,64.999756 780.26122,16.337509 z" />
      <path
         sodipodi:type="inkscape:box3dside"
         id="path3176"
         style="fill:#353564;fill-rule:evenodd;stroke:none"
         inkscape:box3dsidetype="6"
         d="M 334.10132,-6.7764322 302.27553,96.32661 780.26122,16.337509 756.85731,-37.285827 z" />
      <path
         sodipodi:type="inkscape:box3dside"
         id="path3186"
         style="fill:#e9e9ff;fill-rule:evenodd;stroke:none"
         inkscape:box3dsidetype="11"
         d="m 756.85731,-37.285827 242.6072,26.810901 62.90929,75.474682 -282.11258,-48.662247 z" />
      <path
         sodipodi:type="inkscape:box3dside"
         id="path3178"
         style="fill:#4d4d9f;fill-rule:evenodd;stroke:none"
         inkscape:box3dsidetype="5"
         d="M 334.10132,-6.7764322 580.83467,70.997559 999.46451,-10.474926 756.85731,-37.285827 z" />
      <path
         sodipodi:type="inkscape:box3dside"
         id="path3182"
         style="fill:#d7d7ff;fill-rule:evenodd;stroke:none"
         inkscape:box3dsidetype="14"
         d="M 580.83467,70.997559 602.59901,289.35007 1062.3738,64.999756 999.46451,-10.474926 z" />
      <path
         sodipodi:type="inkscape:box3dside"
         id="path3180"
         style="fill:#8686bf;fill-rule:evenodd;stroke:none"
         inkscape:box3dsidetype="3"
         d="M 334.10132,-6.7764322 580.83467,70.997559 602.59901,289.35007 302.27553,96.32661 z" />
    </g>
  </g>
</svg>
